PathFileType	4	(X/Y/Z)	C:/Users/opensim2020/Desktop/walking_exp_matlab/subject03_walking05_straight_04.trc	
DataRate	CameraRate	NumFrames	NumMarkers	Units	OrigDataRate	OrigDataStartFrame	OrigNumFrames	
100.00	100.00	9	45	mm	100.00	3038	294	
Frame#	Time	LFHD			RFHD			LBHD			RBHD			C7			T10			CLAV			STRN			RBAK			LSHO			LUPA			LELB			LFRM			LWRA			LWRB			LFIN			RSHO			RUPA			RELB			RFRM			RWRA			RWRB			RFIN			LASI			RASI			LPSI			RPSI			LTHI			LKNE			LTIB			LANK			LHEE			LTOE			RTHI			RKNE			RTIB			RANK			RHEE			RTOE			*39			*40			*41			*42			*43			*44			
		X1	Y1	Z1	X2	Y2	Z2	X3	Y3	Z3	X4	Y4	Z4	X5	Y5	Z5	X6	Y6	Z6	X7	Y7	Z7	X8	Y8	Z8	X9	Y9	Z9	X10	Y10	Z10	X11	Y11	Z11	X12	Y12	Z12	X13	Y13	Z13	X14	Y14	Z14	X15	Y15	Z15	X16	Y16	Z16	X17	Y17	Z17	X18	Y18	Z18	X19	Y19	Z19	X20	Y20	Z20	X21	Y21	Z21	X22	Y22	Z22	X23	Y23	Z23	X24	Y24	Z24	X25	Y25	Z25	X26	Y26	Z26	X27	Y27	Z27	X28	Y28	Z28	X29	Y29	Z29	X30	Y30	Z30	X31	Y31	Z31	X32	Y32	Z32	X33	Y33	Z33	X34	Y34	Z34	X35	Y35	Z35	X36	Y36	Z36	X37	Y37	Z37	X38	Y38	Z38	X39	Y39	Z39	X40	Y40	Z40	X41	Y41	Z41	X42	Y42	Z42	X43	Y43	Z43	X44	Y44	Z44	X45	Y45	Z45	

184	1.830	1491.69897	-134.69830	1614.57202	1359.52161	-120.48429	1622.87085	1497.80725	-8.88349	1564.79309	1367.26135	0.72891	1573.09448	1435.22107	19.67272	1408.59314	1438.23901	42.53686	1093.78589	1429.76965	-102.99393	1334.65723	1438.75867	-152.26276	1172.05225	1345.69702	72.05157	1229.14172	1586.24805	-64.84383	1373.67529	1658.82166	-86.62330	1180.92224	1668.19165	-123.12137	1064.31628	1652.05188	-205.68575	968.07745	1604.58435	-280.71832	885.44501	1654.64075	-262.28394	869.43610	1636.70630	-324.64551	818.34967	1271.31543	-50.53167	1354.11230	1208.97583	-36.41827	1127.95190	1201.80481	-41.72628	1014.09717	1203.29443	-39.65114	876.91626	1242.14734	-53.79777	778.61694	1195.87292	-24.36511	777.43622	1211.21216	-31.60614	702.53845	1558.36963	-122.16378	927.72650	1319.74438	-133.29770	942.26941	1499.98071	36.44847	953.32587	1352.26050	30.12987	965.88348	1593.90881	-25.56847	629.53870	1567.72156	7.51910	452.42639	1559.78687	158.72995	317.00006	1512.57629	294.15637	159.52524	1472.71350	342.45871	162.51968	1475.25134	213.54945	33.26148	1275.22473	-123.57671	648.56311	1316.98230	-176.00795	476.17471	1313.57190	-168.88072	286.20721	1362.50439	-189.86223	71.76270	1414.57190	-148.25327	39.36495	1380.20630	-333.19183	38.25851	1452.00928	-44.66706	1674.60388															 
185	1.840	1490.86841	-146.10646	1615.90320	1358.71631	-132.03635	1623.99695	1497.03687	-19.73664	1567.48218	1366.49707	-10.32909	1575.55798	1434.66577	9.54027	1410.55359	1437.62878	31.53799	1095.50659	1429.22803	-113.63953	1336.59521	1438.42932	-163.41873	1174.20325	1344.61536	60.73464	1230.87463	1585.33887	-75.10046	1376.09973	1657.40015	-95.94179	1183.16785	1666.19092	-130.62369	1065.79321	1650.91199	-211.52603	967.68347	1603.91418	-284.70752	883.07623	1654.15747	-265.82965	867.87500	1636.05005	-326.58102	814.41302	1270.84839	-61.32189	1356.32080	1208.03979	-48.29808	1130.32703	1200.85229	-54.24762	1016.56726	1202.18713	-53.22757	879.38245	1241.05371	-68.03063	781.14142	1194.82080	-38.75884	779.79572	1210.21118	-45.81781	704.89648	1556.89404	-133.52087	929.59418	1319.11340	-143.86319	944.22443	1499.04016	25.04816	955.10175	1351.43335	18.61593	968.09967	1594.41858	-41.03192	629.53851	1569.47131	-11.82389	451.78366	1560.31726	141.78741	319.69675	1513.27539	280.61563	165.60452	1472.53284	327.93542	172.90634	1474.64795	212.20917	33.00370	1274.86401	-131.79926	649.76733	1316.06055	-180.70715	476.53329	1312.88074	-171.49948	286.43143	1362.56799	-190.11731	71.77373	1414.50317	-148.31229	39.39417	1380.33337	-333.40442	38.07885																		 
186	1.850	1490.05237	-157.40407	1616.92542	1357.82788	-143.41179	1624.68311	1496.68579	-30.45639	1569.89929	1365.78723	-21.27514	1577.62329	1433.63977	-0.91720	1411.56885	1436.59546	20.72927	1096.97656	1428.83203	-124.21880	1338.19263	1438.14673	-174.40034	1176.06702	1343.65308	49.51174	1232.39697	1584.54700	-85.08243	1378.22168	1656.04724	-105.07733	1185.14478	1664.33264	-137.80270	1067.04651	1649.98877	-216.61778	967.40607	1603.56506	-288.70624	880.59851	1653.90674	-269.20993	866.17816	1635.53503	-328.15161	810.12744	1270.47620	-72.12673	1358.30310	1207.05908	-60.18647	1132.55591	1199.78845	-66.83114	1018.86823	1200.92871	-66.70951	881.72852	1239.81995	-82.67839	783.58527	1193.58813	-53.38786	782.01068	1209.07605	-60.66729	706.91730	1555.78894	-144.36638	931.26855	1317.86804	-155.07855	946.11249	1498.01428	14.17655	956.82013	1350.41833	7.18306	970.03107	1594.78674	-56.46958	629.27765	1571.00366	-31.31214	450.98187	1560.46985	124.09795	321.97592	1514.42310	265.48264	171.16217	1474.07471	312.46710	183.46907	1474.61365	208.52344	35.48027	1274.85828	-139.44197	650.58844	1315.38330	-185.56169	476.64801	1312.48413	-174.46515	286.63455	1362.71936	-190.32149	71.81203	1414.53149	-148.28452	39.46343	1380.63770	-333.57590	37.94519																		 
187	1.860	1489.29980	-168.61369	1617.76733	1356.98438	-154.64362	1625.22534	1496.08862	-41.28373	1571.89380	1365.21973	-32.14653	1579.23816	1433.16138	-10.95838	1412.91943	1435.44495	9.96471	1098.09546	1428.55090	-134.73610	1339.49414	1437.96008	-185.17462	1177.52466	1342.54639	38.33866	1233.59021	1583.83203	-95.00538	1379.89868	1654.95178	-114.22223	1186.76038	1662.69177	-144.92142	1067.94092	1649.17078	-222.00458	966.61462	1603.46252	-292.72501	877.99640	1653.84802	-272.56430	864.27069	1635.23218	-329.54105	805.53394	1270.23413	-83.09064	1359.98193	1205.92090	-72.07466	1134.45044	1198.52173	-79.34644	1020.89734	1199.68835	-80.50095	883.88147	1238.52747	-97.52474	785.80286	1192.28809	-68.22872	783.88971	1207.92529	-76.00629	708.78857	1554.06470	-155.35338	933.04279	1317.00293	-165.78264	947.18280	1496.81213	3.62978	957.98621	1349.25427	-3.94767	971.48792	1595.08044	-71.76105	628.88171	1572.22107	-51.12368	449.97028	1561.34253	105.42012	323.96646	1515.56482	250.40466	177.27885	1475.63843	296.50662	193.29443	1475.78320	200.99335	39.54274	1274.79773	-146.93439	651.11090	1314.86804	-191.23175	476.53293	1312.22913	-177.69803	286.71799	1362.84717	-190.59952	71.77312	1414.38611	-147.96025	39.50069	1380.92505	-333.73172	37.82062																		 
188	1.870	1488.64063	-179.70412	1618.52271	1356.31030	-165.87534	1625.65759	1495.56873	-52.05517	1573.53442	1364.63879	-43.00105	1580.59094	1432.65344	-21.14935	1413.68042	1434.19153	-0.64626	1098.95557	1428.21460	-144.98442	1340.44250	1437.81616	-195.71761	1178.67017	1341.41162	27.33552	1234.58044	1583.33972	-104.86906	1381.16675	1653.99084	-123.12989	1187.85266	1661.30090	-152.00008	1068.41272	1648.61035	-227.58295	965.51929	1603.58179	-296.68195	874.98676	1653.97974	-275.90494	862.04950	1635.12891	-330.61716	800.54108	1269.98364	-94.07091	1361.33374	1204.75073	-83.92426	1136.06885	1197.11926	-91.91584	1022.58191	1198.28430	-94.69473	885.63892	1237.16016	-112.72968	787.70697	1190.99963	-83.41449	785.50073	1206.75903	-91.70002	710.38623	1553.54041	-165.30409	934.06665	1316.21912	-176.50618	947.73096	1495.60535	-6.43999	958.88501	1347.99524	-14.69770	972.57593	1595.32324	-86.87749	628.39899	1573.12634	-71.32575	449.05499	1562.78735	85.96809	325.35672	1515.73621	235.20456	183.99429	1475.40979	280.62543	201.60701	1479.26453	189.46390	44.65918	1274.72974	-154.30682	651.43921	1314.57239	-196.74677	476.26093	1311.84619	-181.26910	286.88361	1362.86401	-190.86951	71.73423	1414.34692	-147.97813	39.55521	1381.21533	-333.87497	37.69171																		 
189	1.880	1488.07373	-190.67482	1619.22546	1355.68359	-176.89458	1626.05701	1495.10437	-62.75492	1574.98792	1364.15771	-53.82315	1581.72571	1431.90320	-31.53731	1414.20386	1432.81226	-11.16752	1099.56042	1428.09363	-155.13345	1341.26819	1437.71606	-206.02586	1179.54138	1340.27490	16.48905	1235.21277	1583.11475	-114.38286	1382.01733	1653.22314	-131.83504	1188.34619	1660.18604	-159.09090	1068.37817	1648.16760	-232.87651	963.94611	1603.89404	-300.65961	871.61096	1654.22485	-279.07748	859.37000	1635.29321	-331.45755	795.30914	1269.68286	-105.05627	1362.28101	1203.48730	-95.89242	1137.34399	1195.55896	-104.58678	1023.94604	1196.83667	-108.96664	886.94232	1235.87158	-128.13367	789.34503	1189.74707	-98.84367	786.75476	1205.55029	-107.88528	711.76013	1553.07520	-174.92026	934.88751	1315.53845	-187.11102	947.76959	1494.36426	-16.30009	959.19128	1346.68347	-25.20053	973.30670	1595.51965	-101.76318	627.99512	1574.00024	-91.85260	448.19562	1563.88855	66.26072	326.89532	1515.26135	219.07739	190.87541	1473.87097	264.46378	208.25877	1482.94019	174.74588	49.62037	1273.92371	-161.93155	651.95807	1314.08167	-202.02562	476.00763	1311.46606	-184.69858	286.94424	1362.88892	-191.00363	71.73732	1414.22375	-147.94698	39.54128	1381.39673	-333.94119	37.61249																		 
190	1.890	1487.56311	-201.58324	1619.87305	1355.14380	-187.79350	1626.44702	1494.29285	-73.53553	1576.17542	1363.66492	-64.60709	1582.68506	1431.48828	-41.49688	1415.01160	1431.47620	-21.46585	1100.08813	1427.99866	-165.19987	1342.04822	1437.59302	-216.00320	1180.17334	1339.11804	5.86783	1235.76648	1583.04102	-123.91868	1382.41931	1652.63306	-140.38983	1188.30676	1659.34949	-166.45268	1067.96509	1647.97168	-238.35854	961.93738	1604.44507	-304.56476	867.89624	1654.60022	-282.19830	856.32123	1635.66736	-332.00867	789.84662	1269.42908	-115.93474	1363.10828	1202.22754	-107.86671	1138.23853	1193.88000	-117.26894	1024.93835	1195.36218	-123.44274	888.01904	1234.49646	-143.46156	790.60895	1188.39050	-114.42815	787.67950	1204.31104	-124.66720	712.86572	1552.75330	-184.26918	935.27203	1314.92505	-197.59239	947.64478	1493.22766	-25.84547	959.17926	1345.46863	-35.38228	973.77393	1595.67908	-116.48360	627.91779	1574.93225	-112.66190	447.70575	1564.00720	46.44449	329.20639	1514.77087	202.26768	197.07893	1472.40259	247.12302	213.53201	1487.35645	157.62770	54.22529	1272.37195	-169.63589	652.43549	1313.35742	-207.11148	475.74576	1311.02979	-187.71800	286.97845	1362.92651	-191.13857	71.78164	1414.29517	-148.24185	39.55759	1381.48291	-334.02679	37.50985																		 
191	1.900	1487.17603	-212.39944	1620.43591	1354.78516	-198.77719	1626.83057	1494.28162	-84.13227	1577.28625	1363.23950	-75.40556	1583.53467	1431.19983	-51.43563	1416.04358	1430.23535	-31.62046	1100.52319	1428.01465	-175.24124	1342.65979	1437.56311	-225.90370	1180.65710	1337.82397	-4.57361	1236.17676	1583.07349	-133.40509	1382.49023	1652.05640	-148.70091	1187.80359	1658.59045	-173.97110	1067.16296	1647.87695	-243.86197	959.50092	1605.16492	-308.39822	863.81879	1655.10950	-285.17395	852.92706	1636.23193	-332.47028	784.28961	1269.11304	-126.84450	1363.64404	1200.99524	-120.05447	1138.90955	1192.25073	-130.21571	1025.67029	1193.90479	-138.02333	888.85944	1233.20984	-159.43575	791.96259	1187.10242	-130.22296	788.25836	1203.05920	-141.77457	713.83398	1552.57654	-193.32799	935.43921	1314.31543	-207.98596	947.46155	1492.13000	-35.34420	958.78998	1344.42993	-45.30857	974.20441	1596.03430	-131.09297	628.25793	1575.94495	-133.48686	447.92532	1563.73901	26.37645	331.80411	1514.34631	183.64561	202.04066	1470.98828	228.60478	217.55052	1491.28052	138.74529	58.45352	1270.27795	-177.68307	652.93109	1312.53528	-211.98083	475.53436	1310.70178	-190.26274	286.99930	1363.04639	-191.21324	71.86646	1414.10779	-147.92746	39.69913	1381.47363	-334.10446	37.44926																		 
192	1.910	1486.88062	-223.12531	1620.97803	1354.42896	-209.56230	1627.17847	1493.63843	-94.75527	1578.14905	1362.89233	-86.07623	1584.28748	1430.49817	-61.96604	1416.57825	1429.08105	-41.57980	1100.95142	1428.04407	-185.23994	1343.20862	1437.50244	-235.60312	1181.01367	1336.49854	-14.83948	1236.55835	1583.15784	-142.72734	1382.27173	1651.55237	-156.86116	1186.97205	1658.09924	-181.76038	1066.16211	1647.99939	-249.54678	956.84888	1605.97327	-311.88309	859.35254	1655.75623	-287.98370	849.27112	1637.01343	-332.77023	778.74988	1268.83948	-137.65038	1364.03040	1199.89380	-132.35786	1139.35364	1190.70996	-143.35727	1026.22437	1192.56128	-152.91522	889.54248	1231.94678	-175.47533	793.02563	1185.81726	-146.30299	788.81403	1201.73425	-159.21786	714.88586	1552.13965	-202.10406	935.59613	1313.62000	-218.35558	947.64044	1491.22864	-44.66836	958.51343	1343.56494	-54.97465	974.65656	1596.36108	-145.95747	629.05090	1576.92883	-154.12712	448.82233	1563.74426	5.96859	334.30316	1514.35339	164.11786	205.77293	1469.97644	209.16498	220.24316	1494.83850	118.05061	62.10439	1269.48987	-184.77089	653.28119	1311.75354	-216.48137	475.45648	1310.36890	-192.52599	287.07416	1363.16223	-191.19444	71.97193	1414.17371	-147.92542	39.79667	1381.48877	-334.14868	37.39000																		 
